# xmcd
#
# Track frame offsets: 
#        150
#        17472
#        35105
#        54175
#        72017
#        91765
#        111292
#        125250
#        145710
#        161707
#        180100
#
# Disc length: 2612 seconds
#
# Revision: 0
# Processed by: cddbd v1.5.1PL0 Copyright (c) Steve Scherf et al.
# Submitted via: ExactAudioCopy v0.95a5
#
DISCID=800a320b
DTITLE=Fly To The Sky - Gravity
DYEAR=2005
DGENRE=R&B
TTITLE0=Stay
TTITLE1=Gravity
TTITLE2=그대는 모르죠(Good-bye)
TTITLE3=Old Skool Love
TTITLE4=열감기(Rest of my life)
TTITLE5=한참이 지나도(If you go away)
TTITLE6=Take A Bow
TTITLE7=사랑을 모르다...(Monologue)
TTITLE8=Tell me
TTITLE9=My Neverending Story
TTITLE10=For you
EXTD=
EXTT0=
EXTT1=
EXTT2=
EXTT3=
EXTT4=
EXTT5=
EXTT6=
EXTT7=
EXTT8=
EXTT9=
EXTT10=
PLAYORDER=
